<svg width="110" height="110" viewBox="0 0 110 110" fill="none" xmlns="http://www.w3.org/2000/svg">
<path fill-rule="evenodd" clip-rule="evenodd" d="M55 105C82.6142 105 105 82.6142 105 55C105 27.3858 82.6142 5 55 5C27.3858 5 5 27.3858 5 55C5 82.6142 27.3858 105 55 105ZM42.9102 66.7515L42.703 68.1202H55.2838L55.491 66.7515C55.8068 64.8842 56.31 63.2928 57.0007 61.9772C57.6915 60.6616 58.6091 59.5051 59.7537 58.5078C60.8983 57.5105 62.2896 56.5344 63.9276 55.5796C65.9998 54.4125 67.8548 53.0969 69.4928 51.6328C71.1308 50.1474 72.4826 48.4393 73.5483 46.5083C74.6139 44.5774 75.3441 42.3387 75.7388 39.7924C76.3308 35.9517 75.9164 32.7051 74.4955 30.0527C73.0944 27.4003 70.9137 25.3951 67.9535 24.0371C65.013 22.679 61.52 22 57.4744 22C53.7445 22 50.2318 22.6896 46.9361 24.0689C43.6404 25.4269 40.8479 27.5276 38.5587 30.371C36.2695 33.2144 34.7499 36.8641 34 41.3202H47.6169C47.8537 39.8348 48.3668 38.5723 49.1562 37.5325C49.9653 36.4716 50.9225 35.6546 52.0276 35.0817C53.1525 34.5088 54.307 34.2223 55.491 34.2223C56.6357 34.2223 57.6421 34.4876 58.5104 35.0181C59.3788 35.5273 60.0201 36.2594 60.4346 37.2142C60.849 38.1691 60.9575 39.2725 60.7602 40.5245C60.5629 41.8188 60.0991 42.9753 59.3689 43.9938C58.6387 45.0124 57.7112 45.9672 56.5863 46.8584C55.4614 47.7284 54.2182 48.5878 52.8565 49.4366C51.1593 50.5188 49.6693 51.7177 48.3866 53.0333C47.1038 54.3276 46.0085 56.0464 45.1007 58.1895C44.2127 60.3115 43.4825 63.1655 42.9102 66.7515ZM41.1933 86.581C42.555 88.1937 44.3114 89 46.4624 89C47.7847 89 49.0575 88.6287 50.2811 87.886C51.5046 87.1433 52.5308 86.146 53.3597 84.8941C54.2083 83.6421 54.6918 82.2523 54.8102 80.7245C55.0075 78.4752 54.4056 76.5549 53.0045 74.9634C51.6231 73.372 49.916 72.5762 47.8833 72.5762C45.752 72.5762 43.8575 73.372 42.1998 74.9634C40.542 76.5549 39.6145 78.4752 39.4172 80.7245C39.2396 83.0161 39.8316 84.9683 41.1933 86.581Z" />
</svg>
