<svg width="111" height="110" viewBox="0 0 111 110" fill="none" xmlns="http://www.w3.org/2000/svg">
<path fill-rule="evenodd" clip-rule="evenodd" d="M54.5786 95C76.67 95 94.5786 77.0914 94.5786 55C94.5786 32.9086 76.67 15 54.5786 15C32.4872 15 14.5786 32.9086 14.5786 55C14.5786 77.0914 32.4872 95 54.5786 95ZM54.5786 78.1111C67.3425 78.1111 77.6897 67.7639 77.6897 55C77.6897 42.2361 67.3425 31.8889 54.5786 31.8889C41.8147 31.8889 31.4675 42.2361 31.4675 55C31.4675 67.7639 41.8147 78.1111 54.5786 78.1111Z"/>
<path d="M47.0409 5.08058C51.2819 2.30647 58.7999 2.30647 63.0409 5.08058C66.9397 7.63083 65.0409 19.0806 65.0409 19.0806H45.0409C45.0409 19.0806 43.1421 7.63083 47.0409 5.08058Z"/>
<path d="M14.0569 25.3701C15.0942 20.4097 20.4102 15.0937 25.3706 14.0564C29.9308 13.1028 36.6843 22.5417 36.6843 22.5417L22.5422 36.6838C22.5422 36.6838 13.1034 29.9303 14.0569 25.3701Z"/>
<path d="M105 47.0409C107.775 51.2819 107.775 58.7999 105 63.0409C102.45 66.9397 91.0005 65.0409 91.0005 65.0409V45.0409C91.0005 45.0409 102.45 43.1421 105 47.0409Z"/>
<path d="M84.711 14.0576C89.6714 15.0949 94.9874 20.4109 96.0247 25.3713C96.9782 29.9315 87.5394 36.685 87.5394 36.685L73.3972 22.5429C73.3972 22.5429 80.1508 13.1041 84.711 14.0576Z"/>
<path d="M63.0401 105C58.7991 107.775 51.2812 107.775 47.0401 105C43.1414 102.45 45.0401 91.0005 45.0401 91.0005H65.0401C65.0401 91.0005 66.9389 102.45 63.0401 105Z"/>
<path d="M96.0241 84.711C94.9869 89.6714 89.6709 94.9874 84.7104 96.0247C80.1503 96.9782 73.3967 87.5394 73.3967 87.5394L87.5388 73.3972C87.5388 73.3972 96.9777 80.1508 96.0241 84.711Z"/>
<path d="M5.08058 63.0401C2.30647 58.7991 2.30647 51.2812 5.08059 47.0401C7.63084 43.1414 19.0806 45.0401 19.0806 45.0401L19.0806 65.0401C19.0806 65.0401 7.63083 66.9389 5.08058 63.0401Z"/>
<path d="M25.3701 96.0234C20.4097 94.9862 15.0937 89.6702 14.0564 84.7097C13.1028 80.1496 22.5417 73.396 22.5417 73.396L36.6838 87.5382C36.6838 87.5382 29.9303 96.977 25.3701 96.0234Z"/>
</svg>
